# xmcd CD database file
#
# Track frame offsets:
#	150
#	74909
#	113561
#	178145
#	227973
#	263609
#
# Disc length: 4457 seconds
#
# Revision: 0
# Processed by: cddbd v1.5.2PL0 Copyright (c) Steve Scherf et al.
# Submitted via: CDex 1.51
#
DISCID=54116706
DTITLE=Anthony Braxton - News fom the 70s
DYEAR=1971
DGENRE=Jazz
TTITLE0=01 - Composition 23E
TTITLE1=02 - Composition 8C
TTITLE2=03 - Composition -1
TTITLE3=04 - Composition -2
TTITLE4=05 - Composition 8G
TTITLE5=06 - Four Winds
EXTD=YEAR: 1971
EXTT0=
EXTT1=
EXTT2=
EXTT3=
EXTT4=
EXTT5=
PLAYORDER=
